<svg width="38" height="40" viewBox="0 0 38 40" fill="none" xmlns="http://www.w3.org/2000/svg">
<path d="M37.6952 9.7296C37.6857 9.70408 37.6738 9.68134 37.6617 9.65716C37.6313 9.59608 37.5938 9.54072 37.5487 9.48946C37.5326 9.47124 37.5193 9.45222 37.5016 9.43558C37.4385 9.37607 37.3682 9.32366 37.2861 9.28719L32.2837 7.06412C32.7151 6.4604 33.0051 5.75964 33.0549 4.94301C33.1739 2.9731 31.8723 1.25381 29.8154 0.664825C28.2178 0.207062 26.4181 0.565262 24.6122 1.7009C24.0577 2.04999 23.5147 2.47042 22.9924 2.93524L19.3174 1.30188C19.1156 1.21223 18.8856 1.21147 18.6826 1.30188L15.0198 2.92975C13.387 1.49424 11.4957 0.46875 9.5941 0.46875C9.11307 0.46875 8.63852 0.534744 8.18419 0.664825C6.12692 1.25381 4.82535 2.9731 4.94513 4.94339C4.99496 5.75983 5.28492 6.46045 5.71627 7.06412L0.713867 9.28719C0.631947 9.32366 0.561708 9.37602 0.498671 9.43548C0.480932 9.45217 0.467533 9.47129 0.451368 9.4896C0.406307 9.54077 0.36878 9.59608 0.338453 9.65707C0.326389 9.68129 0.314468 9.70404 0.304884 9.72964C0.272555 9.81581 0.25 9.90598 0.25 10.0013V30.7643C0.25 31.0729 0.431961 31.3529 0.713867 31.478L18.6826 39.4637C18.6941 39.4689 18.7069 39.4668 18.7186 39.4714C18.8094 39.5068 18.9035 39.5312 19 39.5312C19.0965 39.5312 19.1906 39.5068 19.2814 39.4714C19.2931 39.4668 19.3059 39.4689 19.3174 39.4637L37.2861 31.478C37.5684 31.3529 37.75 31.0729 37.75 30.7643V10.0013C37.75 9.90593 37.7275 9.81581 37.6952 9.7296ZM18.2188 18.495V37.548L10.4062 34.0759V15.0229L18.2188 18.495ZM19 17.1318L11.5753 13.8323L17.7488 11.1503C17.761 11.145 17.7684 11.1342 17.7803 11.1283C18.0551 11.1484 18.3321 11.1704 18.6052 11.1896C18.6052 11.1896 19.0057 11.2148 19.0137 11.2148C19.0378 11.2148 19.3941 11.19 19.3941 11.19C19.6674 11.1706 19.9449 11.1487 20.2201 11.1286C20.2318 11.1344 20.2391 11.145 20.2512 11.1503L26.4247 13.8323L19 17.1318ZM28.3629 12.9709L23.423 10.8249C24.5269 10.6876 25.6306 10.5095 26.7194 10.2363C27.7841 9.96925 29.6719 9.36992 31.1132 8.25421L35.0454 10.0013L28.3629 12.9709ZM25.4445 3.02345C26.4944 2.36237 27.4839 2.03049 28.4002 2.03049C28.7389 2.03049 29.0677 2.07588 29.3851 2.16705C30.4967 2.4852 31.5809 3.43773 31.4954 4.84802C31.3772 6.77979 28.7549 8.11531 26.3395 8.72108C24.307 9.23073 22.1685 9.42261 20.0742 9.57481C20.8471 7.59117 22.92 4.61266 25.4445 3.02345ZM19 2.87048L21.7982 4.11412C20.6346 5.38542 19.6515 6.82938 19.0066 8.13996C18.3742 6.83081 17.404 5.38542 16.2252 4.10392L19 2.87048ZM8.61449 2.16705C8.92882 2.07703 9.25841 2.03125 9.5941 2.03125C12.964 2.03125 16.8085 6.63635 17.9326 9.57558C15.8361 9.42299 13.6953 9.23149 11.6605 8.72108C9.24544 8.11531 6.62245 6.77979 6.50458 4.8484C6.41913 3.43811 7.5025 2.4852 8.61449 2.16705ZM6.88676 8.25426C8.32791 9.36992 10.2157 9.96925 11.2806 10.2363C12.3694 10.5096 13.4731 10.6877 14.5769 10.825L9.63716 12.9709L2.955 10.0013L6.88676 8.25426ZM1.8125 11.2036L8.84375 14.3285V33.3815L1.8125 30.2566V11.2036ZM19.7812 18.495L27.5938 15.0229V34.0759L19.7812 37.548V18.495ZM29.1562 33.3815V14.3285L36.1875 11.2036V30.2566L29.1562 33.3815Z" fill="#393333"/>
</svg>
