<svg width="14" height="28" viewBox="0 0 14 28" fill="none" xmlns="http://www.w3.org/2000/svg">
<path fill-rule="evenodd" clip-rule="evenodd" d="M3.40332 27.4912C3.40332 27.6836 3.55957 27.8398 3.75195 27.8398H8.72266C8.91504 27.8398 9.07031 27.6836 9.07031 27.4912V13.8906H12.6738C12.8545 13.8906 13.0059 13.752 13.0205 13.5713L13.3672 9.47363C13.3848 9.27051 13.2246 9.0957 13.0205 9.0957H9.07031V6.18848C9.07031 5.50684 9.62305 4.95508 10.3047 4.95508H13.0811C13.2744 4.95508 13.4297 4.79883 13.4297 4.60645V0.507812C13.4297 0.31543 13.2744 0.15918 13.0811 0.15918H8.38965C5.63574 0.15918 3.40332 2.3916 3.40332 5.14453V9.0957H0.918945C0.726562 9.0957 0.570312 9.25195 0.570312 9.44434V13.542C0.570312 13.7354 0.726562 13.8906 0.918945 13.8906H3.40332V27.4912Z" fill="#393333"/>
</svg>
