<svg width="28" height="28" viewBox="0 0 28 28" fill="none" xmlns="http://www.w3.org/2000/svg">
<path d="M19.3111 0.111328H8.69997C3.96664 0.111328 0.122192 3.95577 0.122192 8.68911V19.3002C0.122192 24.0336 3.96664 27.878 8.69997 27.878H19.3111C24.0444 27.878 27.8889 24.0336 27.8889 19.3002V8.68911C27.8889 3.95577 24.0444 0.111328 19.3111 0.111328ZM24.7889 19.3113C24.7889 22.3335 22.3333 24.8002 19.3 24.8002H8.68886C5.66664 24.8002 3.19997 22.3447 3.19997 19.3113V8.70022C3.19997 5.678 5.65552 3.21133 8.68886 3.21133H19.3C22.3222 3.21133 24.7889 5.66688 24.7889 8.70022V19.3113Z" fill="#393333"/>
<path d="M14 6.90039C10.0889 6.90039 6.90002 10.0893 6.90002 14.0004C6.90002 17.9115 10.0889 21.1004 14 21.1004C17.9111 21.1004 21.1 17.9115 21.1 14.0004C21.1 10.0893 17.9111 6.90039 14 6.90039ZM14 18.3115C11.6222 18.3115 9.68891 16.3782 9.68891 14.0004C9.68891 11.6226 11.6222 9.68928 14 9.68928C16.3778 9.68928 18.3111 11.6226 18.3111 14.0004C18.3111 16.3782 16.3778 18.3115 14 18.3115Z" fill="#393333"/>
<path d="M21.6407 7.67876C22.2948 7.57272 22.7391 6.95649 22.6331 6.30236C22.527 5.64823 21.9108 5.20391 21.2567 5.30995C20.6025 5.41599 20.1582 6.03223 20.2643 6.68636C20.3703 7.34049 20.9865 7.7848 21.6407 7.67876Z" fill="#393333"/>
</svg>
