<svg width="30" height="30" viewBox="0 0 30 30" fill="none" xmlns="http://www.w3.org/2000/svg">
<path d="M17.9259 24.1379C15.2445 24.138 12.6398 23.2433 10.5243 21.5956L2.54333 29.5766C1.94712 30.1524 0.997101 30.1359 0.421303 29.5397C-0.14039 28.9581 -0.14039 28.0361 0.421303 27.4546L8.40226 19.4736C4.31363 14.2104 5.26573 6.6293 10.5289 2.54067C15.7921 -1.54797 23.3731 -0.595865 27.4618 4.66731C31.5504 9.93049 30.5983 17.5116 25.3351 21.6002C23.2162 23.2463 20.6091 24.1393 17.9259 24.1379ZM24.3386 5.65926C20.7969 2.11756 15.0548 2.1175 11.5131 5.65913C7.97142 9.20076 7.97136 14.9429 11.513 18.4846C15.0546 22.0263 20.7967 22.0263 24.3384 18.4847C24.3385 18.4846 24.3385 18.4846 24.3386 18.4846C27.8802 14.9688 27.9011 9.24756 24.3852 5.70593C24.3697 5.69033 24.3542 5.67479 24.3386 5.65926Z" fill="#393333"/>
</svg>
