<svg width="24" height="20" viewBox="0 0 24 20" fill="none" xmlns="http://www.w3.org/2000/svg">
<path d="M23.2519 0.96756L19.6924 18.9119C19.6924 18.9119 19.1943 20.1561 17.8261 19.5594L9.61326 13.2625L6.62596 11.8191L1.59862 10.1267C1.59862 10.1267 0.827131 9.85233 0.752913 9.25565C0.677717 8.658 1.62401 8.33475 1.62401 8.33475L21.6093 0.494904C21.6093 0.494904 23.2519 -0.226777 23.2519 0.96756Z" fill="#393333"/>
<path d="M12.8203 16.1094L9.32324 19.2979C9.32324 19.2979 9.05078 19.5049 8.75098 19.375C8.31055 19.3115 7.01855 14.7061 6.2168 11.958L6.88769 11.5312L12.8203 16.1094Z" fill="#393333"/>
<path d="M8.75098 19.3748C8.27442 19.3299 6.46191 12.7605 6.2168 11.9578L19.208 3.70682C19.8838 3.29667 20.2451 3.61991 19.6631 4.16288C19.2617 4.53788 9.45801 13.3504 9.45801 13.3504L8.75098 19.3748Z" fill="#FFCF5C"/>
</svg>
